<svg xmlns="http://www.w3.org/2000/svg" width="1200" height="630" viewBox="0 0 1200 630" fill="none">
  <defs>
    <linearGradient id="bg" x1="70" y1="40" x2="1120" y2="590" gradientUnits="userSpaceOnUse">
      <stop stop-color="#0B132B" />
      <stop offset="1" stop-color="#1C2541" />
    </linearGradient>
  </defs>
  <rect width="1200" height="630" fill="url(#bg)" />
  <circle cx="180" cy="110" r="140" fill="#5BC0BE" fill-opacity="0.22" />
  <circle cx="1010" cy="84" r="96" fill="#A8B2D1" fill-opacity="0.2" />
  <g stroke="#5BC0BE" stroke-opacity="0.6" stroke-width="2">
    <line x1="196" y1="426" x2="338" y2="320" />
    <line x1="338" y1="320" x2="502" y2="366" />
    <line x1="502" y1="366" x2="662" y2="294" />
    <line x1="662" y1="294" x2="806" y2="352" />
    <line x1="806" y1="352" x2="950" y2="282" />
  </g>
  <g fill="#E6F1FF">
    <circle cx="196" cy="426" r="10" />
    <circle cx="338" cy="320" r="10" />
    <circle cx="502" cy="366" r="10" />
    <circle cx="662" cy="294" r="10" />
    <circle cx="806" cy="352" r="10" />
    <circle cx="950" cy="282" r="10" />
  </g>
  <circle cx="662" cy="294" r="13" fill="#F4D35E" />
  <text x="90" y="220" fill="#5BC0BE" font-family="IBM Plex Mono, monospace" font-size="24" letter-spacing="3">AI x INTERFACE</text>
  <text x="90" y="312" fill="#E6F1FF" font-family="Space Grotesk, sans-serif" font-size="68" font-weight="700">Keerthana M</text>
  <text x="90" y="368" fill="#A8B2D1" font-family="Source Sans 3, sans-serif" font-size="34">Software Developer | AIML Enthusiast</text>
</svg>
